<svg width="44" height="21" viewBox="0 0 44 21" fill="none" xmlns="http://www.w3.org/2000/svg">
<path d="M9.11562 0.523192C14.9523 0.0242091 17.868 4.70054 21.9777 7.90605C22.3629 7.94001 27.0439 3.32899 27.8245 2.70722C35.179 -3.15517 45.5156 3.45962 43.5284 12.7783C42.1763 19.124 34.8856 22.4471 29.327 19.2991C26.6715 17.52 24.4776 15.1165 22.0644 13.0213C19.9547 14.6044 18.1384 16.731 16.0849 18.3586C8.73807 24.1896 -1.7184 17.3345 0.534115 8.05235C1.51114 4.02391 5.04935 0.870651 9.11562 0.523192ZM8.85287 4.30083C2.83 5.18385 2.11062 14.4634 7.79676 16.4123C12.9115 18.1652 15.4727 13.468 19.0211 10.7954L19.2048 10.4872C18.9701 10.205 18.7124 9.93856 18.4497 9.68515C16.9012 8.1882 13.187 4.61694 11.2125 4.30083C10.6232 4.20678 9.4447 4.21462 8.85032 4.30083H8.85287ZM32.8244 4.30083C32.2556 4.39227 31.0668 4.92783 30.5719 5.257L24.7021 10.4689C26.2965 11.864 27.7914 13.421 29.4163 14.7769C31.5183 16.5324 33.3627 17.3554 36.1178 16.4123C42.8677 14.0976 40.6585 3.05468 32.8295 4.30083H32.8244Z" fill="white"/>
</svg>
